# xmcd
#
# Track frame offsets: 
#        150
#        16930
#        33895
#        54337
#        68656
#        81524
#        98388
#        114583
#        130321
#        146805
#        162566
#
# Disc length: 2460 seconds
#
# Revision: 0
# Processed by: cddbd v1.5.2PL0 Copyright (c) Steve Scherf et al.
# Submitted via: ExactAudioCopy v1.0b1
#
DISCID=8d099a0b
DTITLE=Teleks - Kotimatkalla
DYEAR=2011
DGENRE=Pop
TTITLE0=Kaunein kaikista
TTITLE1=Tyttö joka katsoo merelle
TTITLE2=Kotimatkalla
TTITLE3=Flamingo
TTITLE4=Hiipivä aamu
TTITLE5=Suutele suulle
TTITLE6=Sinne ja takaisin
TTITLE7=Syyllinen
TTITLE8=Täällä huojuu metsät ja meikä
TTITLE9=Onnellinen vuoden päästä
TTITLE10=Jäisissä puiden oksissa
EXTD=
EXTT0=
EXTT1=
EXTT2=
EXTT3=
EXTT4=
EXTT5=
EXTT6=
EXTT7=
EXTT8=
EXTT9=
EXTT10=
PLAYORDER=
